<svg xmlns="http://www.w3.org/2000/svg" xmlns:xlink="http://www.w3.org/1999/xlink" width="211" height="150" viewBox="0 0 342.58 242.57">
  <defs>
    <clipPath id="clip-path">
      <path d="M177.76,145.66a7.73,7.73,0,1,1-7.67,7.79v-.06A7.71,7.71,0,0,1,177.76,145.66Zm-18.28,7.73a7.7,7.7,0,1,1,0-.01Zm45.58-44.62a4.26,4.26,0,0,1,4.22,4.26V172.5H199.07V119.06H146V108.77Zm-74.56,25.5v53.45h53.1V198H124.51a4.26,4.26,0,0,1-4.22-4.26V134.27Z" fill="none"/>
    </clipPath>
  </defs>
  <path d="M236.66,0H32.91A17.67,17.67,0,0,0,15.29,17.62V55.2L0,70.5,15.3,85.8V188.33a17.68,17.68,0,0,0,17.62,17.63H236.66a17.68,17.68,0,0,0,17.63-17.63V17.62A17.68,17.68,0,0,0,236.66,0Z" fill="#00abec"/>
  <g opacity="0.4">
    <rect x="43.29" y="27" width="125" height="11" fill="#fff"/>
    <rect x="43.29" y="57" width="170" height="11" fill="#fff"/>
    <rect x="43.29" y="86" width="68" height="11" fill="#fff"/>
  </g>
  <path d="M342.58,181.5l-15.79-15.8V99.12A17.68,17.68,0,0,0,309.16,81.5H105.41A17.67,17.67,0,0,0,87.79,99.12V222.87a17.68,17.68,0,0,0,17.62,17.63H309.16a17.68,17.68,0,0,0,17.63-17.63V197.33Z" fill="#0072c6"/>
  <g opacity="0.4">
    <rect x="253.28" y="142.99" width="51" height="11" fill="#fff"/>
    <rect x="232.28" y="172.99" width="72" height="11" fill="#fff"/>
    <rect x="272.28" y="201.99" width="32" height="11" fill="#fff"/>
  </g>
  <path d="M177.76,145.66a7.73,7.73,0,1,1-7.67,7.79v-.06A7.71,7.71,0,0,1,177.76,145.66Zm-18.28,7.73a7.7,7.7,0,1,1,0-.01Zm45.58-44.62a4.26,4.26,0,0,1,4.22,4.26V172.5H199.07V119.06H146V108.77Zm-74.56,25.5v53.45h53.1V198H124.51a4.26,4.26,0,0,1-4.22-4.26V134.27Z" fill="#fff"/>
  <g clip-path="url(#clip-path)">
    <rect x="72.13" y="60.2" width="182.37" height="182.37" fill="#fff"/>
  </g>
</svg>
